<?xml version="1.0" standalone="no"?><!DOCTYPE svg PUBLIC "-//W3C//DTD SVG 1.1//EN" "http://www.w3.org/Graphics/SVG/1.1/DTD/svg11.dtd"><svg t="1591946436622" class="icon" viewBox="0 0 1036 1024" version="1.1" xmlns="http://www.w3.org/2000/svg" p-id="9908" xmlns:xlink="http://www.w3.org/1999/xlink" width="202.34375" height="200"><defs><style type="text/css"></style></defs><path d="M844.8 627.2c105.984 0 192 86.016 192 192 0 105.984-86.016 192-192 192-105.984 0-192-86.016-192-192 0-105.984 86.016-192 192-192z m0 243.2a25.6 25.6 0 1 0 0 51.2 25.6 25.6 0 0 0 0-51.2zM806.4 38.4a85.3376 85.3376 0 0 1 85.3376 85.3376v443.5456a271.0784 271.0784 0 0 0-85.3504-1.3568L806.4 123.7376H123.7376V806.4h453.4656a272.128 272.128 0 0 0 5.4528 85.3376H123.7376A85.3376 85.3376 0 0 1 38.4 806.4V123.7376A85.3376 85.3376 0 0 1 123.7376 38.4H806.4z m38.4 678.4a25.6 25.6 0 0 0-25.536 23.68L819.2 742.4v76.8a25.6 25.6 0 0 0 51.136 1.92L870.4 819.2v-76.8a25.6 25.6 0 0 0-25.6-25.6zM247.4624 412.5184c8.4224 0 16.6656 2.496 23.68 7.168L599.552 638.6304A42.6624 42.6624 0 0 1 575.872 716.8H247.4752A42.6624 42.6624 0 0 1 204.8 674.1376V455.1936a42.6624 42.6624 0 0 1 42.6624-42.6752zM652.8 204.8a64 64 0 1 1 0 128 64 64 0 0 1 0-128z" p-id="9909"></path></svg>